#!OML:ASF H:\BreakDance\Project 1\Capture day 1\Session 1\Male.ASF
:FULLY-SPECIFIED
:DEGREES
355
root 31.5918 15.9026 -7.30672 25.8623 -44.6644 -10.1583
lowerback -6.43696 -0.29941 -3.7761
upperback 0.284812 -0.0586525 -1.59274
thorax 3.91063 -0.0945079 0.466326
lowerneck 2.14086 -15.4529 -6.49341
upperneck -15.7943 -19.6166 18.8946
head -2.39116 -10.6025 6.87982
rclavicle -8.26944e-014 4.92986e-014
rhumerus -50.9349 19.988 -99.0373
rradius 58.9768
rwrist -14.8076
rhand -21.6354 -21.4179
rfingers 7.12502
rthumb 4.76082 -51.3444
lclavicle -8.26944e-014 4.92986e-014
lhumerus -41.0807 -14.0439 72.6828
lradius 45.7615
lwrist 16.7968
lhand -30.3825 -32.9294
lfingers 7.12502
lthumb -3.68684 -2.98158
rfemur -17.7387 -13.9912 21.0399
rtibia 56.9036
rfoot 5.2938 25.7164
rtoes 8.05951
lfemur -30.1307 3.69435 -3.0734
ltibia 52.514
lfoot -30.9262 16.7555
ltoes -37.9309
356
root 31.5254 16.0161 -7.40083 26.7986 -46.2364 -11.4318
lowerback -6.7278 -0.241201 -3.64062
upperback 0.173165 0.0164587 -1.52205
thorax 3.95538 -0.0549111 0.470609
lowerneck 1.74433 -15.0445 -6.28422
upperneck -15.0187 -19.1342 18.4593
head -2.22836 -10.3093 6.67152
rclavicle 4.6118e-014 -3.02153e-014
rhumerus -50.5759 21.2118 -98.8704
rradius 60.8622
rwrist -14.2658
rhand -21.5338 -19.775
rfingers 7.12502
rthumb 4.85898 -49.6993
lclavicle 4.6118e-014 -3.02153e-014
lhumerus -41.8043 -15.5961 74.3512
lradius 48.2099
lwrist 16.3026
lhand -30.2893 -33.31
lfingers 7.12502
lthumb -3.59683 -3.36055
rfemur -18.6539 -14.3017 21.3082
rtibia 57.3469
rfoot 3.31396 24.8432
rtoes 3.56816
lfemur -29.2758 2.43756 -2.7773
ltibia 52.0939
lfoot -31.0502 18.9825
ltoes -35.524
357
root 31.4609 16.1186 -7.49697 27.6952 -47.7587 -12.6064
lowerback -6.97283 -0.199669 -3.47465
upperback 0.056361 0.0650133 -1.49701
thorax 3.97002 -0.0272059 0.408375
lowerneck 1.38571 -14.6186 -6.06904
upperneck -14.302 -18.6239 18.0207
head -2.09005 -10.0062 6.47172
rclavicle -8.34896e-015 -2.22639e-014
rhumerus -50.1577 22.2716 -98.6389
rradius 62.7656
rwrist -13.6836
rhand -21.4601 -17.927
rfingers 7.12502
rthumb 4.93011 -47.8496
lclavicle -8.34896e-015 -2.22639e-014
lhumerus -42.4619 -17.1962 75.9369
lradius 50.657
lwrist 15.7676
lhand -30.3144 -33.6941
lfingers 7.12502
lthumb -3.62107 -3.74514
rfemur -19.6326 -14.6098 21.5422
rtibia 57.8682
rfoot 0.844812 23.5971
rtoes -1.0838
lfemur -28.5369 1.39348 -2.74583
ltibia 51.8678
lfoot -31.3204 20.3639
ltoes -32.2981
358
root 31.3985 16.2099 -7.59385 28.5518 -49.2314 -13.7067
lowerback -7.15882 -0.195813 -3.27723
upperback -0.0589961 0.056914 -1.46147
thorax 3.95484 -0.0268132 0.333743
lowerneck 1.06507 -14.1596 -5.95953
upperneck -13.656 -18.0663 17.6015
head -1.96809 -9.67973 6.30173
rclavicle 7.91163e-014 0
rhumerus -49.7048 23.2872 -98.3062
rradius 64.7275
rwrist -13.0657
rhand -21.2953 -16.1345
rfingers 7.12502
rthumb 5.08921 -46.0534
lclavicle 7.91163e-014 0
lhumerus -43.0458 -18.6991 77.482
lradius 53.0665
lwrist 15.2209
lhand -30.4085 -34.1776
lfingers 7.12502
lthumb -3.71195 -4.23016
rfemur -20.6525 -14.9028 21.7448
rtibia 58.4236
rfoot -2.02418 21.9761
rtoes -6.93466
lfemur -27.8931 0.617656 -2.94707
ltibia 51.8117
lfoot -31.4105 20.7244
ltoes -28.8103
359
root 31.3367 16.2901 -7.69128 29.3618 -50.6871 -14.7728
lowerback -7.29353 -0.188208 -3.04355
upperback -0.142126 0.0494178 -1.43582
thorax 3.94428 -0.0257727 0.228533
lowerneck 0.789778 -13.696 -5.89925
upperneck -13.1127 -17.4932 17.2326
head -1.87254 -9.35189 6.16356
rclavicle -2.54444e-014 -1.59028e-014
rhumerus -49.1858 24.1624 -97.8822
rradius 66.7587
rwrist -12.4164
rhand -20.9217 -14.5144
rfingers 7.12502
rthumb 5.44998 -44.4243
lclavicle -2.54444e-014 -1.59028e-014
lhumerus -43.47 -20.1877 78.952
lradius 55.4071
lwrist 14.6933
lhand -30.6044 -34.7625
lfingers 7.12502
lthumb -3.90116 -4.81851
rfemur -21.6644 -15.1174 21.9262
rtibia 58.9749
rfoot -4.7709 20.1313
rtoes -11.4245
lfemur -27.2877 0.136075 -3.34488
ltibia 51.887
lfoot -31.0512 20.0356
ltoes -25.9967
360
root 31.2747 16.3582 -7.7893 30.1503 -52.1469 -15.8572
lowerback -7.37066 -0.170588 -2.78046
upperback -0.173182 0.0514334 -1.39804
thorax 3.95522 -0.0200852 0.120266
lowerneck 0.504747 -13.2317 -5.91728
upperneck -12.6443 -16.9111 16.9349
head -1.78158 -9.0227 6.06014
rclavicle 2.94201e-014 3.81667e-014
rhumerus -48.5743 24.9327 -97.356
rradius 68.8532
rwrist -11.7996
rhand -20.3329 -12.9853
rfingers 7.12502
rthumb 6.0184 -42.8799
lclavicle 2.94201e-014 3.81667e-014
lhumerus -43.6932 -21.6287 80.3506
lradius 57.6696
lwrist 14.1581
lhand -30.9681 -35.4232
lfingers 7.12502
lthumb -4.25229 -5.48594
rfemur -22.6488 -15.2206 22.1068
rtibia 59.5007
rfoot -7.2431 18.1959
rtoes -14.5899
lfemur -26.6893 -0.0778642 -3.89498
ltibia 52.051
lfoot -30.2219 18.3152
ltoes -25.037
361
root 31.214 16.4125 -7.88776 30.9387 -53.6175 -17.014
lowerback -7.33789 -0.130448 -2.45242
upperback -0.15711 0.0751364 -1.35375
thorax 3.95306 -0.00238341 -0.0153385
lowerneck 0.214048 -12.7724 -5.97234
upperneck -12.2573 -16.3268 16.6847
head -1.70438 -8.6965 5.97999
rclavicle 2.98177e-014 -4.92986e-014
rhumerus -47.8725 25.5915 -96.755
rradius 70.9885
rwrist -11.2542
rhand -19.5792 -11.5189
rfingers 7.12502
rthumb 6.74604 -41.3915
lclavicle 2.98177e-014 -4.92986e-014
lhumerus -43.7219 -23.0449 81.66
lradius 59.8775
lwrist 13.6249
lhand -31.5172 -36.0623
lfingers 7.12502
lthumb -4.78253 -6.13624
rfemur -23.5777 -15.2048 22.2987
rtibia 59.9845
rfoot -9.28145 16.3391
rtoes -15.5962
lfemur -26.0578 -0.104052 -4.55292
ltibia 52.2605
lfoot -29.1646 15.588
ltoes -26.3831
362
root 31.1571 16.4528 -7.98487 31.8512 -55.1844 -18.3126
lowerback -7.19661 -0.0298792 -1.99861
upperback -0.13505 0.167301 -1.343
thorax 3.89596 0.0524258 -0.248992
lowerneck -0.0871736 -12.3303 -5.99297
upperneck -11.9386 -15.7583 16.4389
head -1.64535 -8.38245 5.89919
rclavicle -3.26007e-014 2.38542e-014
rhumerus -47.0893 26.116 -96.1349
rradius 73.1276
rwrist -10.7963
rhand -18.7527 -10.1498
rfingers 7.12502
rthumb 7.54382 -39.9952
lclavicle -3.26007e-014 2.38542e-014
lhumerus -43.5675 -24.4679 82.8421
lradius 62.0519
lwrist 13.11
lhand -32.2256 -36.6151
lfingers 7.12502
lthumb -5.46652 -6.70558
rfemur -24.5473 -15.0017 22.4907
rtibia 60.4309
rfoot -10.8614 14.6954
rtoes -14.2876
lfemur -25.4349 -0.0255531 -5.32702
ltibia 52.4815
lfoot -28.2167 11.9543
ltoes -29.3235
363
root 31.1047 16.4802 -8.07936 32.9709 -56.9065 -19.7833
lowerback -6.93773 0.147714 -1.41332
upperback -0.151455 0.351473 -1.39907
thorax 3.73533 0.156136 -0.616745
lowerneck -0.390118 -11.8935 -5.95064
upperneck -11.6745 -15.1918 16.1761
head -1.60735 -8.07365 5.80769
rclavicle -7.15625e-014 -3.02153e-014
rhumerus -46.2635 26.5038 -95.5674
rradius 75.2381
rwrist -10.4316
rhand -18.035 -8.93448
rfingers 7.12502
rthumb 8.2366 -38.7539
lclavicle -7.15625e-014 -3.02153e-014
lhumerus -43.2719 -25.9126 83.867
lradius 64.203
lwrist 12.6469
lhand -33.0171 -37.0941
lfingers 7.12502
lthumb -6.23076 -7.2057
rfemur -25.6318 -14.5393 22.646
rtibia 60.8295
rfoot -12.0802 13.2763
rtoes -10.9979
lfemur -24.8688 0.0672072 -6.24011
ltibia 52.6807
lfoot -27.5232 7.59417
ltoes -32.5911
364
root 31.0554 16.4938 -8.17274 34.283 -58.7704 -21.385
lowerback -6.5651 0.354102 -0.802867
upperback -0.222582 0.57358 -1.49256
thorax 3.4596 0.278446 -1.03572
lowerneck -0.698877 -11.4375 -5.88175
upperneck -11.4374 -14.5987 15.8581
head -1.58445 -7.75145 5.69852
rclavicle 2.14687e-014 4.6118e-014
rhumerus -45.4172 26.883 -95.0757
rradius 77.2901
rwrist -10.1746
rhand -17.5528 -7.93747
rfingers 7.12502
rthumb 8.70189 -37.7381
lclavicle 2.14687e-014 4.6118e-014
lhumerus -42.8808 -27.2586 84.7494
lradius 66.3205
lwrist 12.2306
lhand -33.8634 -37.4866
lfingers 7.12502
lthumb -7.04766 -7.62391
rfemur -26.8274 -13.8492 22.7444
rtibia 61.1953
rfoot -13.2412 11.9441
rtoes -7.41569
lfemur -24.3809 0.206706 -7.34398
ltibia 52.8282
lfoot -26.8946 3.07929
ltoes -35.9685
365
root 31.0061 16.4951 -8.2657 35.7725 -60.7592 -23.0962
lowerback -6.16871 0.607098 -0.232585
upperback -0.315025 0.867187 -1.66068
thorax 3.15664 0.433985 -1.5058
lowerneck -1.00325 -10.9771 -5.70663
upperneck -11.2458 -13.9965 15.5103
head -1.58481 -7.4302 5.56772
rclavicle 2.14687e-014 -9.54166e-015
rhumerus -44.4847 27.1281 -94.6645
rradius 79.251
rwrist -9.97843
rhand -17.3457 -7.16034
rfingers 7.12502
rthumb 8.90177 -36.9526
lclavicle 2.14687e-014 -9.54166e-015
lhumerus -42.332 -28.6318 85.4442
lradius 68.375
lwrist 11.869
lhand -34.7898 -37.8051
lfingers 7.12502
lthumb -7.94193 -7.97434
rfemur -28.1126 -12.9418 22.7592
rtibia 61.5189
rfoot -14.3667 10.7165
rtoes -3.77912
lfemur -23.9611 0.37516 -8.64633
ltibia 52.8887
lfoot -26.2803 -1.21592
ltoes -38.8266
366
root 30.9544 16.4851 -8.35838 37.3892 -62.8223 -24.8835
lowerback -5.80337 0.862269 0.200167
upperback -0.394268 1.1782 -1.84634
thorax 2.89073 0.59456 -1.91848
lowerneck -1.29622 -10.4945 -5.50405
upperneck -11.1064 -13.362 15.1441
head -1.60587 -7.09597 5.43082
rclavicle -1.08536e-013 3.18055e-014
rhumerus -43.4128 27.3477 -94.2589
rradius 81.1042
rwrist -9.83958
rhand -17.507 -6.58407
rfingers 7.12502
rthumb 8.74611 -36.3829
lclavicle -1.08536e-013 3.18055e-014
lhumerus -41.6079 -29.9245 86.0002
lradius 70.3393
lwrist 11.5234
lhand -35.76 -38.0969
lfingers 7.12502
lthumb -8.8782 -8.30371
rfemur -29.4422 -11.8798 22.6803
rtibia 61.8003
rfoot -15.6789 9.51052
rtoes -1.78006
lfemur -23.5856 0.55857 -10.1334
ltibia 52.8332
lfoot -25.7064 -4.92258
ltoes -41.1071
367
root 30.8974 16.4648 -8.45157 39.0416 -64.8968 -26.7223
lowerback -5.48354 1.04712 0.391912
upperback -0.408638 1.41272 -1.95052
thorax 2.71245 0.713462 -2.11966
lowerneck -1.6145 -9.95446 -5.42375
upperneck -10.9937 -12.6495 14.7631
head -1.62742 -6.71812 5.3087
rclavicle -3.57812e-015 0
rhumerus -42.15 27.748 -93.7648
rradius 82.8376
rwrist -9.83047
rhand -17.4716 -6.10392
rfingers 7.12502
rthumb 8.78028 -35.9013
lclavicle -3.57812e-015 0
lhumerus -40.6941 -30.9279 86.4871
lradius 72.1882
lwrist 11.154
lhand -36.7608 -38.3698
lfingers 7.12502
lthumb -9.84391 -8.61991
rfemur -30.7034 -10.7275 22.518
rtibia 62.0264
rfoot -17.0299 8.38988
rtoes -0.748723
lfemur -23.172 0.734797 -11.7539
ltibia 52.6369
lfoot -25.2916 -7.79086
ltoes -42.8071
368
root 30.8333 16.4351 -8.54472 40.8833 -66.9284 -28.7923
lowerback -5.24788 1.17643 0.41271
upperback -0.346866 1.58398 -1.95351
thorax 2.65169 0.79945 -2.12471
lowerneck -1.92756 -9.37302 -5.45609
upperneck -10.9212 -11.8786 14.378
head -1.65705 -6.30871 5.20502
rclavicle -2.38542e-015 -9.54166e-015
rhumerus -40.6911 28.2669 -93.1678
rradius 84.4427
rwrist -9.97905
rhand -17.792 -5.649
rfingers 7.12502
rthumb 8.47103 -35.4591
lclavicle -2.38542e-015 -9.54166e-015
lhumerus -39.59 -31.7017 86.9226
lradius 73.916
lwrist 10.7916
lhand -37.7868 -38.6724
lfingers 7.12502
lthumb -10.8337 -8.97186
rfemur -31.8692 -9.488 22.3684
rtibia 62.1908
rfoot -18.3196 7.3895
rtoes -0.270058
lfemur -22.7052 0.898298 -13.3795
ltibia 52.2977
lfoot -25.1162 -9.79371
ltoes -43.9555
369
root 30.763 16.3969 -8.6365 42.9457 -68.8196 -31.156
lowerback -5.06799 1.20963 0.331303
upperback -0.203842 1.63194 -1.80942
thorax 2.69355 0.823376 -1.92868
lowerneck -2.22556 -8.73644 -5.65991
upperneck -10.9057 -11.0296 13.9756
head -1.70173 -5.85574 5.12682
rclavicle -5.56597e-015 6.67916e-014
rhumerus -39.0367 28.9735 -92.4329
rradius 85.9069
rwrist -10.2753
rhand -18.122 -5.24947
rfingers 7.12502
rthumb 8.15263 -35.0722
lclavicle -5.56597e-015 6.67916e-014
lhumerus -38.3394 -32.1737 87.3548
lradius 75.5529
lwrist 10.5051
lhand -38.7718 -39.0591
lfingers 7.12502
lthumb -11.7836 -9.41062
rfemur -32.8845 -8.27447 22.2801
rtibia 62.2813
rfoot -19.4857 6.56917
rtoes 0.0344738
lfemur -22.1555 1.0077 -14.9158
ltibia 51.8253
lfoot -25.133 -11.0985
ltoes -44.5001
